
<svg id="Слой_1" data-name="Слой 1" xmlns="http://www.w3.org/2000/svg" viewBox="150 250 600 100"><defs><style>.cls-1{fill:#fff;}.cls-2{fill:#00af9a;}.cls-3{fill:#5d7688;}</style></defs><title>logo GreenGO 4этап</title>
<path id="path-k3v5yz759lg" d="M199.43,346.55C173.9,346.55,151.97,326.18,151.97,300.3C151.97,288.55,157.36,276.69,165.63,268.54C181.813233,253.029394,206.487878,250.553677,225.43,262.54C231.18,266.37,238.61,273.2,240.89,280.03L230.83,280.03C224.59,269.61,211.77,263.49,199.43,263.49C189.705777,263.396654,180.298724,266.946149,173.06,273.44C165.75,280.15,160.84,290.34,160.84,300.44C160.84,322.01,178.69,338.07,199.79,338.07C215.6,338.07,231.18,327.64,235.62,312.18L186.12,312.18L186.12,304.18L246.28,304.18C244.61,328.46,223.27,346.55,199.43,346.55Z" fill="rgb(93,118,136)" stroke="none" style="mix-blend-mode: normal; paint-order: fill;">
<animate attributeName="fill" values="#5d7688; #00af9a; #00af9a; #00af9a; #00af9a; #00af9a; #00af9a" dur="5s" repeatCount="indefinite" />
</path>
<path id="path-sn64zqxo4x" d="M262.47,279.44L262.47,288.91C265.94,281.12,273.47,278.24,281.47,278L281.47,286.75C276.68,287.11,273.32,288.19,269.61,291.31C263.5,296.46,262.9,300.9,262.9,308.31L262.9,345L254.03,345L254.03,279.44Z" fill="rgb(93,118,136)" stroke="none" style="mix-blend-mode: normal; paint-order: fill;">
<animate attributeName="fill" values="#5d7688; #5d7688; #00af9a; #00af9a; #00af9a; #00af9a; #00af9a" dur="5s" repeatCount="indefinite" />
</path>

<path id="path-u3yzsd14ct" d="M314.66,338.05C324.37,338.05,334.19,332.65,338.15,323.66L347.38,323.66C342.82,336.85,329.38,346.55,315.5,346.55C299.474267,346.792191,285.419816,335.897601,281.659047,320.317505C277.898278,304.737409,285.435158,288.631041,299.806695,281.53585C314.178231,274.440659,331.547824,278.250766,341.63,290.71C347.74,298.26,349.06,305.93,349.3,315.4L290,315.4C290.45,327.86,302.56,338.05,314.66,338.05ZM315.38,286.51C303.04,286.51,292.13,295.26,289.97,307.37L340.43,307.37C338.15,295.74,327.48,286.51,315.38,286.51Z" fill="rgb(93,118,136)" stroke="none" style="mix-blend-mode: normal; paint-order: fill;">
  <animate attributeName="fill" values="#5d7688; #5d7688; #5d7688; #00af9a; #00af9a; #00af9a; #00af9a" dur="5s" repeatCount="indefinite" />
</path>

<path id="path-8gicc3zg64i" d="M387.89,338.05C397.6,338.05,407.42,332.65,411.38,323.66L420.61,323.66C416.05,336.85,402.61,346.55,388.73,346.55C372.703129,346.796828,358.644806,335.904662,354.88073,320.324121C351.116655,304.743579,358.651837,288.634676,373.023748,281.537516C387.39566,274.440356,404.766993,278.249884,414.85,290.71C420.97,298.26,422.28,305.93,422.52,315.4L363.2,315.4C363.68,327.86,375.78,338.05,387.89,338.05ZM388.61,286.51C376.26,286.51,365.36,295.26,363.2,307.37L413.66,307.37C411.38,295.74,400.71,286.51,388.61,286.51Z" fill="rgb(93,118,136)" stroke="none" style="mix-blend-mode: normal; paint-order: fill;">
  <animate attributeName="fill" values="#5d7688; #5d7688; #5d7688; #5d7688; #00af9a; #00af9a; #00af9a" dur="5s" repeatCount="indefinite" />
</path>

<path id="path-zd23vnn5fp" d="M438.47,279.44L438.47,288.91C443.47,281.84,450.21,278,458.84,278C467.825119,278.005749,476.343324,282.002894,482.09,288.91C487.09,295.26,488.09,302.21,488.09,310.48L488.09,345L479.23,345L479.23,310.48C479.23,304.85,478.75,299.58,475.39,294.9C471.465032,289.511038,465.155511,286.378678,458.49,286.51C452.180013,286.517754,446.237263,289.478028,442.43,294.51C439,299.22,439.07,305,439,310.48L439,345L430.13,345L430.13,279.44Z" fill="rgb(93,118,136)" stroke="none" style="mix-blend-mode: normal; paint-order: fill;">
  <animate attributeName="fill" values="#5d7688; #5d7688; #5d7688; #5d7688; #5d7688; #00af9a; #00af9a" dur="5s" repeatCount="indefinite" />
</path>
  
<path id="path-r9mxahy75mc" d="M547.12,298.4L535.12,298.33L535.12,301.82L528.48,301.82L528.48,305.59L535.12,305.59L535.12,310.39L528.48,310.39L528.48,314.16L535.12,314.16L535.12,317.16L546.78,317.16L558,312.7L576.36,312.7C571.82,326.25,557.92,336,542.77,336C522.04,336,505.77,320.32,505.77,300.31C505.77,291.11,510.21,281.31,517.36,274.76C524.215045,268.590217,533.13785,265.220967,542.36,265.32C554.57,265.32,566.52,271.61,572.12,280.96L572.4,281.44L584.2,281.44L583.76,280.15C581.47,273.26,574,266.38,568.3,262.58C549.445799,250.663435,524.895465,253.139099,508.8,268.58C500.28,276.98,495.19,288.81,495.19,300.23C495.19,325.63,516.38,346.3,542.42,346.3C566.94,346.3,587.42,327.74,589.07,304.04L589.14,303.04L558.29,303.04Z" fill="rgb(93,118,136)" stroke="none" style="mix-blend-mode: normal; paint-order: fill;">
  <animate attributeName="fill" values="#5d7688; #5d7688; #5d7688; #5d7688; #5d7688; #5d7688; #00af9a" dur="5s" repeatCount="indefinite" />
</path>
<rect id="rect-qkx9gvnfxgo" fill="rgb(93,118,136)" width="10.61" height="38.03" rx="0" ry="0" stroke="none" transform="translate(634.32 248.42)" style="mix-blend-mode: normal; paint-order: fill;">
  <animate attributeName="fill" values="#5d7688; #5d7688; #5d7688; #5d7688; #5d7688; #5d7688; #00af9a" dur="5s" repeatCount="indefinite" />
</rect>
<path id="path-qvsm7fbe8vk" d="M626.7,267.55L627.64,267.23L627.64,256.52L626.4,256.86C606.753422,262.169047,592.964832,279.802963,592.55,300.15C592.535669,308.307257,594.744831,316.314172,598.94,323.31C601.94,329.52,608.48,335.31,613.58,338.7C621.290468,343.68115,630.290812,346.295386,639.47,346.22L639.78,346.22C641.05,346.22,642.39,346.15,643.88,346.02C644.19,346.02,644.49,345.96,644.79,345.92L645.29,345.86C646.06,345.77,646.83,345.67,647.59,345.55C657.222945,344.059508,666.14351,339.578236,673.09,332.74C681.61,324.34,686.7,312.51,686.7,301.09C686.670931,292.947158,684.427516,284.965578,680.21,278C677.21,271.81,670.75,266,665.66,262.59C661.714885,260.019046,657.392955,258.07907,652.85,256.84L651.61,256.5L651.61,267.44L652.25,267.67C657.998007,269.715628,663.150956,273.150927,667.25,277.67C668.14,278.75,669.07,279.77,669.62,280.53L669.95,281.05L670.2,281.45C674.073915,287.231156,676.125576,294.040997,676.09,301C676.041832,305.596645,675.047868,310.134159,673.17,314.33L672.85,314.93C672.74,315.19,672.62,315.43,672.5,315.68L672.32,316.06C670.450497,319.78338,667.965548,323.164263,664.97,326.06L664.78,326.23C664.52,326.47,664.26,326.72,663.99,326.95C663.72,327.18,663.66,327.23,663.49,327.37L663.19,327.61C661.427126,329.060682,659.532173,330.342956,657.53,331.44L657.22,331.61C656.58,331.95,655.93,332.28,655.22,332.61C654.51,332.94,653.64,333.32,652.71,333.67C648.542153,335.184524,644.144445,335.969345,639.71,335.99C629.134168,335.968104,619.056816,331.492104,611.95,323.66C611.040312,322.68001,610.20468,321.633798,609.45,320.53L609.18,320.19L609,319.88C605.083916,314.105397,602.993521,307.287228,603,300.31C603.047311,295.713257,604.041313,291.175571,605.92,286.98L606.24,286.38C606.35,286.13,606.47,285.89,606.59,285.65L606.78,285.25C608.718665,281.414392,611.310753,277.945866,614.44,275C614.71,274.75,614.97,274.5,615.26,274.26C615.55,274.02,615.6,273.97,615.77,273.83L616.05,273.6C617.799499,272.163959,619.677414,270.891931,621.66,269.8L622.02,269.6C622.67,269.26,623.32,268.93,624.02,268.6C624.72,268.27,625.59,267.89,626.51,267.55" fill="rgb(93,118,136)" stroke="none" style="mix-blend-mode: normal; paint-order: fill;">
  <animate attributeName="fill" values="#5d7688; #5d7688; #5d7688; #5d7688; #5d7688; #5d7688; #00af9a" dur="5s" repeatCount="indefinite" />
</path></svg>