<?xml version="1.0" standalone="no"?>
<!DOCTYPE svg PUBLIC "-//W3C//DTD SVG 20010904//EN"
 "http://www.w3.org/TR/2001/REC-SVG-20010904/DTD/svg10.dtd">
<svg version="1.0" xmlns="http://www.w3.org/2000/svg"
 width="64.000000pt" height="64.000000pt" viewBox="0 0 64.000000 64.000000"
 preserveAspectRatio="xMidYMid meet">

<g transform="translate(0.000000,64.000000) scale(0.100000,-0.100000)"
 stroke="none">
<path d="M268 501 c-44 -22 -230 -155 -248 -176 -7 -9 -15 -37 -18 -64 -3 -37
0 -51 13 -62 9 -8 31 -29 48 -46 23 -24 39 -33 64 -33 32 0 73 28 73 50 0 6
45 10 116 10 l115 0 26 -30 c30 -36 83 -41 111 -11 9 11 22 26 29 33 7 7 20
19 29 27 27 23 14 145 -24 226 -38 80 -64 95 -166 95 -66 0 -77 -3 -90 -22 -9
-12 -16 -32 -16 -45 0 -12 -11 -33 -25 -47 -29 -30 -37 -106 -10 -106 8 0 15
-9 15 -20 0 -11 5 -20 10 -20 6 0 10 9 10 20 0 11 7 20 15 20 8 0 15 -9 15
-20 0 -11 5 -20 10 -20 6 0 10 9 10 19 0 10 7 21 15 25 31 11 11 99 -24 111
-15 4 -21 15 -21 34 0 42 17 51 98 51 70 0 76 -2 103 -31 37 -40 71 -150 67
-214 -3 -53 -18 -67 -33 -33 -25 57 -103 61 -133 8 l-17 -30 -115 0 c-110 0
-116 1 -125 22 -25 57 -103 61 -133 8 -9 -17 -21 -28 -27 -27 -12 4 -19 52
-11 83 8 29 190 168 259 198 45 19 61 36 34 36 -7 0 -29 -8 -49 -19z m112
-120 c5 -11 10 -29 10 -40 0 -18 -6 -21 -45 -21 -43 0 -45 1 -45 28 0 15 5 33
12 40 18 18 56 14 68 -7z m-216 -147 c19 -18 21 -65 4 -82 -29 -29 -98 -1 -98
40 0 24 35 58 59 58 11 0 27 -7 35 -16z m388 -1 c36 -32 15 -93 -32 -93 -53 0
-79 53 -43 92 20 22 51 23 75 1z"/>
</g>
</svg>
