<?xml version="1.0" standalone="no"?>
<!DOCTYPE svg PUBLIC "-//W3C//DTD SVG 20010904//EN"
 "http://www.w3.org/TR/2001/REC-SVG-20010904/DTD/svg10.dtd">
<svg version="1.0" xmlns="http://www.w3.org/2000/svg"
 width="64.000000pt" height="64.000000pt" viewBox="0 0 64.000000 64.000000"
 preserveAspectRatio="xMidYMid meet">

<g transform="translate(0.000000,64.000000) scale(0.100000,-0.100000)"
 stroke="none">
<path d="M273 491 c-22 -11 -64 -36 -93 -58 l-51 -38 48 -3 c59 -4 71 -14 75
-60 2 -25 8 -38 20 -40 13 -3 17 6 20 39 6 80 70 80 76 0 3 -33 7 -42 20 -39
11 2 19 16 22 42 4 31 12 44 35 57 67 39 140 6 85 -38 -21 -17 -45 -16 -60 2
-20 24 -34 13 -40 -30 -10 -74 -70 -73 -80 1 -7 56 -34 53 -38 -3 -3 -36 -7
-44 -28 -49 -32 -8 -45 5 -53 53 l-6 38 -68 3 c-68 3 -69 3 -108 -36 -32 -33
-39 -47 -39 -79 0 -54 20 -72 36 -34 31 75 123 80 157 9 l19 -38 104 0 c88 0
104 2 104 16 0 23 55 74 80 74 35 0 79 -29 86 -56 10 -40 29 -22 32 31 5 70
-32 181 -73 222 l-33 33 -104 0 c-79 0 -113 -5 -145 -19z"/>
<path d="M482 378 c6 -18 28 -21 28 -4 0 9 -7 16 -16 16 -9 0 -14 -5 -12 -12z"/>
<path d="M81 234 c-26 -33 -27 -58 -1 -84 43 -43 110 -14 110 48 0 59 -72 83
-109 36z"/>
<path d="M470 240 c-41 -41 -13 -110 44 -110 19 0 40 8 49 18 37 41 6 112 -48
112 -14 0 -34 -9 -45 -20z"/>
</g>
</svg>
