<?xml version="1.0" standalone="no"?>
<!DOCTYPE svg PUBLIC "-//W3C//DTD SVG 20010904//EN"
 "http://www.w3.org/TR/2001/REC-SVG-20010904/DTD/svg10.dtd">
<svg version="1.0" xmlns="http://www.w3.org/2000/svg"
 width="64.000000pt" height="64.000000pt" viewBox="0 0 64.000000 64.000000"
 preserveAspectRatio="xMidYMid meet">

<g transform="translate(0.000000,64.000000) scale(0.100000,-0.100000)"
fill="#000000" stroke="none">
<path d="M223 622 c-109 -39 -178 -112 -210 -221 -29 -102 4 -228 82 -306 122
-121 328 -121 450 0 91 92 118 241 64 356 -69 146 -241 223 -386 171z m79 -74
c2 -13 10 -23 18 -23 8 0 16 10 18 23 4 25 15 27 61 11 25 -9 31 -16 28 -30
-6 -22 3 -25 21 -7 9 9 20 4 47 -22 l36 -34 -23 -18 c-19 -15 -21 -19 -9 -27
9 -6 22 -6 32 0 14 7 19 3 28 -23 15 -43 14 -68 -4 -68 -8 0 -15 -4 -15 -10 0
-5 7 -10 15 -10 18 0 19 -25 4 -68 -9 -28 -13 -30 -31 -21 -32 17 -49 -7 -20
-29 l23 -18 -36 -34 c-27 -26 -38 -31 -47 -22 -18 18 -27 15 -21 -7 3 -14 -3
-21 -28 -30 -46 -16 -57 -14 -61 11 -2 13 -10 23 -18 23 -8 0 -16 -10 -18 -23
-4 -25 -15 -27 -61 -11 -25 9 -31 16 -28 30 6 22 -3 25 -21 7 -9 -9 -20 -4
-47 22 l-36 34 23 18 c29 22 12 46 -20 29 -18 -9 -22 -7 -31 21 -15 43 -14 68
4 68 8 0 15 5 15 10 0 6 -7 10 -15 10 -18 0 -19 25 -4 68 9 26 14 30 28 23 10
-6 23 -6 32 0 12 8 10 12 -9 27 l-23 18 35 33 c30 29 38 32 51 21 13 -10 15
-9 15 8 0 13 10 24 28 30 44 17 60 14 64 -10z"/>
<path d="M172 394 c2 -14 83 -73 136 -100 14 -7 18 -5 97 45 56 36 83 71 54
71 -7 0 -42 -15 -76 -32 l-63 -33 -63 33 c-70 36 -90 40 -85 16z"/>
</g>
</svg>
