<?xml version="1.0" standalone="no"?>
<!DOCTYPE svg PUBLIC "-//W3C//DTD SVG 20010904//EN"
 "http://www.w3.org/TR/2001/REC-SVG-20010904/DTD/svg10.dtd">
<svg version="1.0" xmlns="http://www.w3.org/2000/svg"
 width="64.000000pt" height="64.000000pt" viewBox="0 0 64.000000 64.000000"
 preserveAspectRatio="xMidYMid meet">

<g transform="translate(0.000000,64.000000) scale(0.100000,-0.100000)"
 stroke="none">
<path d="M244 605 c-4 -8 -15 -15 -25 -15 -10 0 -19 -4 -19 -10 0 -5 9 -10 20
-10 13 0 20 -7 20 -20 0 -13 -7 -20 -20 -20 -11 0 -20 -4 -20 -10 0 -5 9 -10
19 -10 10 0 21 -7 25 -15 3 -10 19 -15 45 -15 41 0 71 20 71 46 0 11 20 14 98
14 90 0 100 -2 120 -23 21 -22 22 -33 22 -190 0 -98 -4 -167 -9 -167 -6 0 -11
17 -13 38 -3 33 -6 37 -33 40 -26 3 -32 9 -45 49 -20 62 -54 86 -129 91 -79 6
-125 -11 -186 -68 -27 -26 -71 -57 -96 -69 -51 -24 -69 -53 -69 -109 0 -44 4
-49 56 -85 49 -33 87 -35 117 -5 34 34 180 34 214 1 30 -31 68 -29 117 4 49
33 56 42 56 69 0 13 8 24 20 27 19 5 20 14 20 182 l0 177 -29 29 c-29 28 -32
29 -130 29 -81 0 -101 3 -101 14 0 26 -30 46 -71 46 -26 0 -42 -5 -45 -15z
m91 -55 c0 -45 0 -45 -37 -48 l-38 -3 0 51 0 51 38 -3 c37 -3 37 -3 37 -48z
m95 -205 c32 -16 60 -61 60 -95 0 -11 6 -23 14 -26 8 -3 16 -14 19 -25 3 -10
12 -19 21 -19 12 0 16 -10 16 -44 0 -25 -4 -48 -10 -51 -6 -4 -10 5 -10 20 0
36 -42 75 -80 75 -38 0 -80 -39 -80 -75 0 -25 -1 -25 -80 -25 -79 0 -80 0 -80
25 0 36 -42 75 -80 75 -38 0 -80 -39 -80 -75 0 -15 -4 -24 -10 -20 -6 3 -10
26 -10 50 0 40 2 44 28 47 19 2 28 9 30 26 2 12 10 22 18 22 9 0 41 25 73 55
31 30 68 59 81 64 38 15 128 13 160 -4z m130 -135 c0 -5 -4 -10 -10 -10 -5 0
-10 5 -10 10 0 6 5 10 10 10 6 0 10 -4 10 -10z m-380 -70 c11 -11 20 -29 20
-40 0 -26 -34 -60 -60 -60 -26 0 -60 34 -60 60 0 11 9 29 20 40 11 11 29 20
40 20 11 0 29 -9 40 -20z m320 0 c11 -11 20 -29 20 -40 0 -26 -34 -60 -60 -60
-26 0 -60 34 -60 60 0 26 34 60 60 60 11 0 29 -9 40 -20z"/>
<path d="M270 339 c-26 -10 -120 -97 -120 -111 0 -4 74 -8 165 -8 160 0 165 1
165 20 0 34 -28 79 -60 95 -32 17 -112 19 -150 4z m30 -54 l0 -45 -57 0 -56 0
24 26 c20 22 77 64 87 64 1 0 2 -20 2 -45z m108 -2 l3 -43 -45 0 -46 0 0 46 0
45 43 -3 c42 -3 42 -3 45 -45z m52 -30 c0 -7 -7 -13 -15 -13 -10 0 -15 10 -15
33 1 30 1 31 15 13 8 -11 15 -26 15 -33z"/>
<path d="M260 190 c0 -5 9 -10 20 -10 11 0 20 5 20 10 0 6 -9 10 -20 10 -11 0
-20 -4 -20 -10z"/>
<path d="M390 190 c0 -5 9 -10 20 -10 11 0 20 5 20 10 0 6 -9 10 -20 10 -11 0
-20 -4 -20 -10z"/>
<path d="M110 125 c-26 -32 13 -81 48 -59 9 6 18 19 20 28 8 38 -43 61 -68 31z
m46 -16 c10 -17 -13 -36 -27 -22 -12 12 -4 33 11 33 5 0 12 -5 16 -11z"/>
<path d="M430 125 c-26 -32 13 -81 48 -59 22 14 27 41 12 59 -16 19 -44 19
-60 0z m46 -16 c10 -17 -13 -36 -27 -22 -12 12 -4 33 11 33 5 0 12 -5 16 -11z"/>
</g>
</svg>
